<svg width="50" height="50" viewBox="0 0 50 50" fill="none" xmlns="http://www.w3.org/2000/svg">
<path d="M23.8512 2.37326C24.4825 1.56052 25.7106 1.56051 26.3419 2.37326L27.9004 4.37948C28.39 5.00977 29.2734 5.17489 29.9576 4.76404L32.1356 3.45628C33.0179 2.92649 34.163 3.37012 34.4582 4.35605L35.1867 6.78978C35.4156 7.55438 36.1796 8.02745 36.966 7.89152L39.4694 7.45885C40.4835 7.28357 41.391 8.11091 41.3101 9.13688L41.1102 11.6694C41.0474 12.4651 41.589 13.1822 42.3714 13.3395L44.862 13.8404C45.871 14.0433 46.4184 15.1426 45.9722 16.07L44.871 18.3594C44.525 19.0786 44.771 19.943 45.4437 20.3723L47.5852 21.7391C48.4527 22.2927 48.566 23.5155 47.815 24.2192L45.9612 25.9561C45.3787 26.5018 45.2958 27.3966 45.7681 28.0401L47.2712 30.0881C47.8801 30.9177 47.5441 32.0989 46.5896 32.4838L44.2334 33.4337C43.4932 33.7322 43.0927 34.5366 43.3006 35.3072L43.9624 37.7599C44.2305 38.7535 43.4904 39.7335 42.4613 39.7475L39.9212 39.7822C39.1231 39.7931 38.459 40.3985 38.3745 41.1922L38.1056 43.7183C37.9967 44.7417 36.9526 45.3882 35.9879 45.0295L33.6067 44.1443C32.8586 43.8661 32.0207 44.1907 31.6552 44.9003L30.4919 47.1587C30.0207 48.0736 28.8135 48.2993 28.0436 47.6164L26.143 45.9307C25.5459 45.4011 24.6472 45.4011 24.0501 45.9307L22.1495 47.6164C21.3796 48.2993 20.1724 48.0736 19.7012 47.1587L18.5379 44.9003C18.1724 44.1907 17.3345 43.8661 16.5864 44.1443L14.2052 45.0295C13.2405 45.3882 12.1964 44.7417 12.0875 43.7183L11.8186 41.1922C11.7341 40.3985 11.07 39.7931 10.2719 39.7822L7.73175 39.7475C6.70268 39.7335 5.96261 38.7535 6.23072 37.7599L6.89252 35.3072C7.10044 34.5366 6.69988 33.7322 5.95966 33.4337L3.60353 32.4838C2.64903 32.0989 2.31296 30.9177 2.9219 30.0881L4.42503 28.0401C4.89727 27.3966 4.81435 26.5018 4.23193 25.9562L2.37807 24.2192C1.62704 23.5156 1.74035 22.2927 2.60789 21.7391L4.74935 20.3723C5.42212 19.943 5.66804 19.0786 5.32208 18.3594L4.22086 16.07C3.77474 15.1426 4.32213 14.0433 5.3311 13.8404L7.82166 13.3395C8.60412 13.1822 9.14566 12.4651 9.08288 11.6694L8.88303 9.13688C8.80207 8.11091 9.70961 7.28357 10.7237 7.45885L13.227 7.89152C14.0135 8.02745 14.7775 7.55438 15.0064 6.78978L15.7349 4.35605C16.0301 3.37012 17.1752 2.92649 18.0575 3.45628L20.2355 4.76404C20.9197 5.17489 21.803 5.00977 22.2927 4.37948L23.8512 2.37326Z" fill="#FFE194"/>
<path d="M32.8611 24.5293C33.0039 24.6735 33.084 24.8682 33.084 25.0711C33.084 25.2741 33.0039 25.4688 32.8611 25.613L26.0168 32.4573C25.8709 32.5968 25.6769 32.675 25.475 32.6759C25.3741 32.6755 25.2741 32.6561 25.1803 32.6189C25.0419 32.5607 24.9238 32.4628 24.8409 32.3377C24.758 32.2125 24.7141 32.0656 24.7145 31.9154V25.8316H17.8702C17.6685 25.8316 17.4751 25.7515 17.3325 25.6089C17.1899 25.4663 17.1098 25.2728 17.1098 25.0711C17.1098 24.8694 17.1899 24.676 17.3325 24.5334C17.4751 24.3908 17.6685 24.3107 17.8702 24.3107H24.7145V18.2268C24.7141 18.0767 24.758 17.9298 24.8409 17.8046C24.9238 17.6794 25.0419 17.5816 25.1803 17.5234C25.3208 17.4686 25.4739 17.4547 25.6219 17.4833C25.77 17.5119 25.9069 17.5818 26.0168 17.685L32.8611 24.5293Z" fill="#3A1D60"/>
</svg>
