<svg width="302" height="307" viewBox="0 0 302 307" fill="none" xmlns="http://www.w3.org/2000/svg">
<path d="M150.999 1.06445C176.265 1.06445 199.377 17.6205 216.223 44.8211C233.042 71.9772 243.467 109.539 243.467 151.065C243.467 192.59 233.042 230.152 216.223 257.308C199.377 284.509 176.265 301.064 150.999 301.064C125.733 301.064 102.621 284.509 85.7745 257.308C68.9561 230.152 58.5303 192.59 58.5303 151.065C58.5303 109.539 68.9562 71.9772 85.7746 44.8211C102.621 17.6205 125.733 1.06445 150.999 1.06445Z" stroke="white" stroke-opacity="0.4" stroke-width="2"/>
<path d="M21.0955 76.0646C33.7285 54.1836 59.6225 42.446 91.6019 41.4572C123.529 40.4696 161.271 50.2222 197.233 70.985C233.196 91.7478 260.512 119.557 275.621 147.701C290.754 175.89 293.536 204.184 280.903 226.065C268.27 247.946 242.376 259.683 210.397 260.672C178.47 261.659 140.728 251.907 104.765 231.145C68.8031 210.382 41.4865 182.572 26.3779 154.429C11.2444 126.239 8.46252 97.9456 21.0955 76.0646Z" stroke="white" stroke-opacity="0.4" stroke-width="2"/>
<path d="M280.903 76.0653C293.536 97.9463 290.754 126.24 275.621 154.429C260.512 182.573 233.195 210.382 197.233 231.145C161.271 251.908 123.529 261.66 91.602 260.673C59.6223 259.684 33.7285 247.946 21.0955 226.065C8.46252 204.184 11.2443 175.891 26.3779 147.701C41.4865 119.558 68.8028 91.7482 104.765 70.9854C140.727 50.2226 178.47 40.4708 210.397 41.458C242.376 42.4468 268.27 54.1843 280.903 76.0653Z" stroke="white" stroke-opacity="0.4" stroke-width="2"/>
</svg>
