<svg width="350" height="350" viewBox="0 0 350 350" fill="none" xmlns="http://www.w3.org/2000/svg">
<g clip-path="url(#clip0_51_3078)">
<path d="M331.309 18.5209C352.004 39.2159 353.674 75.4091 339.112 117.568C324.574 159.657 293.951 207.36 250.655 250.656C207.36 293.952 159.657 324.575 117.567 339.113C75.4085 353.675 39.2153 352.005 18.5203 331.31C-2.1747 310.615 -3.84445 274.422 10.7173 232.263C25.2551 190.173 55.8783 142.471 99.1739 99.1746C142.47 55.879 190.173 25.2557 232.262 10.7179C274.421 -3.84382 310.614 -2.17406 331.309 18.5209Z" stroke="#FFE194" stroke-opacity="0.3" stroke-width="1.94013"/>
<path d="M331.309 331.31C310.614 352.005 274.421 353.675 232.262 339.113C190.173 324.575 142.47 293.952 99.1739 250.656C55.8783 207.36 25.2551 159.657 10.7172 117.568C-3.84444 75.4091 -2.1747 39.2159 18.5203 18.5209C39.2153 -2.17406 75.4085 -3.8438 117.567 10.7179C159.657 25.2557 207.36 55.879 250.655 99.1746C293.951 142.471 324.574 190.173 339.112 232.263C353.674 274.422 352.004 310.615 331.309 331.31Z" stroke="#FFE194" stroke-opacity="0.3" stroke-width="1.94013"/>
</g>
<defs>
<clipPath id="clip0_51_3078">
<rect width="350" height="350" fill="white"/>
</clipPath>
</defs>
</svg>
