<svg width="960" height="270" viewBox="0 0 960 270" fill="none" xmlns="http://www.w3.org/2000/svg">
<g clip-path="url(#clip0_78_46)">
<path d="M960 0H0V270H960V0Z" fill="#CE6A85"/>
<path d="M0 40L20 35.9C40 31.85 80 23.65 120 21.65C160 19.65 200 23.85 240 24.85C280 25.85 320 23.65 360 23.5C400 23.35 440 25.15 480 24.9C520 24.65 560 22.35 600 22.5C640 22.65 680 25.35 720 27.65C760 30 800 32 840 29.25C880 26.5 920 19 940 15.25L960 11.5V0H940C920 0 880 0 840 0C800 0 760 0 720 0C680 0 640 0 600 0C560 0 520 0 480 0C440 0 400 0 360 0C320 0 280 0 240 0C200 0 160 0 120 0C80 0 40 0 20 0H0V40Z" fill="white"/>
</g>
<defs>
<clipPath id="clip0_78_46">
<rect width="960" height="270" fill="white"/>
</clipPath>
</defs>
</svg>
