<svg id="visual" viewBox="0 0 960 540" width="960" height="540" xmlns="http://www.w3.org/2000/svg" xmlns:xlink="http://www.w3.org/1999/xlink" version="1.1"><g stroke-width="1" stroke-linejoin="bevel"><path d="M462 277L338 296L338 365Z" fill="#eab5c0" stroke="#eab5c0"></path><path d="M338 365L462 432L462 277Z" fill="#ce6a85" stroke="#ce6a85"></path><path d="M462 277L361 134L338 296Z" fill="#fbf0f2" stroke="#fbf0f2"></path><path d="M462 432L605 379L462 277Z" fill="#d47990" stroke="#d47990"></path><path d="M462 277L499 143L361 134Z" fill="#f3d2d9" stroke="#f3d2d9"></path><path d="M630 273L499 143L462 277Z" fill="#ffffff" stroke="#ffffff"></path><path d="M312 540L471 540L462 432Z" fill="#ce6a85" stroke="#ce6a85"></path><path d="M462 432L622 540L605 379Z" fill="#ce6a85" stroke="#ce6a85"></path><path d="M338 365L312 540L462 432Z" fill="#ffffff" stroke="#ffffff"></path><path d="M199 540L312 540L338 365Z" fill="#d47990" stroke="#d47990"></path><path d="M361 134L189 255L338 296Z" fill="#ce6a85" stroke="#ce6a85"></path><path d="M338 296L189 255L338 365Z" fill="#e097a8" stroke="#e097a8"></path><path d="M605 379L630 273L462 277Z" fill="#ce6a85" stroke="#ce6a85"></path><path d="M189 255L146 413L338 365Z" fill="#ffffff" stroke="#ffffff"></path><path d="M146 413L199 540L338 365Z" fill="#da889c" stroke="#da889c"></path><path d="M471 540L622 540L462 432Z" fill="#eab5c0" stroke="#eab5c0"></path><path d="M839 242L651 144L630 273Z" fill="#da889c" stroke="#da889c"></path><path d="M774 110L651 144L839 242Z" fill="#da889c" stroke="#da889c"></path><path d="M630 273L651 144L499 143Z" fill="#fbf0f2" stroke="#fbf0f2"></path><path d="M499 143L444 0L361 134Z" fill="#ce6a85" stroke="#ce6a85"></path><path d="M361 134L159 131L189 255Z" fill="#efc4cc" stroke="#efc4cc"></path><path d="M0 261L0 373L146 413Z" fill="#da889c" stroke="#da889c"></path><path d="M666 0L444 0L499 143Z" fill="#efc4cc" stroke="#efc4cc"></path><path d="M361 134L347 0L159 131Z" fill="#ce6a85" stroke="#ce6a85"></path><path d="M444 0L347 0L361 134Z" fill="#efc4cc" stroke="#efc4cc"></path><path d="M0 261L146 413L189 255Z" fill="#eab5c0" stroke="#eab5c0"></path><path d="M146 413L0 540L199 540Z" fill="#efc4cc" stroke="#efc4cc"></path><path d="M159 131L0 261L189 255Z" fill="#da889c" stroke="#da889c"></path><path d="M347 0L159 0L159 131Z" fill="#fbf0f2" stroke="#fbf0f2"></path><path d="M159 131L0 163L0 261Z" fill="#f3d2d9" stroke="#f3d2d9"></path><path d="M774 110L666 0L651 144Z" fill="#eab5c0" stroke="#eab5c0"></path><path d="M651 144L666 0L499 143Z" fill="#e097a8" stroke="#e097a8"></path><path d="M832 392L630 273L605 379Z" fill="#eab5c0" stroke="#eab5c0"></path><path d="M622 540L832 392L605 379Z" fill="#f3d2d9" stroke="#f3d2d9"></path><path d="M0 0L0 163L159 131Z" fill="#fbf0f2" stroke="#fbf0f2"></path><path d="M832 392L839 242L630 273Z" fill="#f8e1e5" stroke="#f8e1e5"></path><path d="M0 373L0 540L146 413Z" fill="#f3d2d9" stroke="#f3d2d9"></path><path d="M622 540L824 540L832 392Z" fill="#fbf0f2" stroke="#fbf0f2"></path><path d="M960 0L786 0L774 110Z" fill="#fbf0f2" stroke="#fbf0f2"></path><path d="M774 110L786 0L666 0Z" fill="#eab5c0" stroke="#eab5c0"></path><path d="M159 0L0 0L159 131Z" fill="#da889c" stroke="#da889c"></path><path d="M832 392L960 286L839 242Z" fill="#e097a8" stroke="#e097a8"></path><path d="M839 242L960 136L774 110Z" fill="#eab5c0" stroke="#eab5c0"></path><path d="M960 378L960 286L832 392Z" fill="#fbf0f2" stroke="#fbf0f2"></path><path d="M960 540L960 378L832 392Z" fill="#fbf0f2" stroke="#fbf0f2"></path><path d="M960 286L960 136L839 242Z" fill="#fbf0f2" stroke="#fbf0f2"></path><path d="M824 540L960 540L832 392Z" fill="#d47990" stroke="#d47990"></path><path d="M960 136L960 0L774 110Z" fill="#d47990" stroke="#d47990"></path></g></svg>