<svg width="960" height="74" viewBox="0 0 960 74" fill="none" xmlns="http://www.w3.org/2000/svg">
<path d="M0 74L20 66.3554C40 58.7107 80 43.4215 120 39.7521C160 36.0826 200 44.0331 240 45.8678C280 47.7025 320 43.4215 360 42.9934C400 42.6264 440 46.0512 480 45.6843C520 45.2562 560 40.9752 600 41.281C640 41.5868 680 46.4793 720 50.8826C760 55.2248 800 59.1388 840 54.124C880 49.1091 920 35.2876 940 28.3157L960 21.405V0H940C920 0 880 0 840 0C800 0 760 0 720 0C680 0 640 0 600 0C560 0 520 0 480 0C440 0 400 0 360 0C320 0 280 0 240 0C200 0 160 0 120 0C80 0 40 0 20 0H0V74Z" fill="#5C374C"/>
</svg>
