<svg width="960" height="71" viewBox="0 0 960 71" fill="none" xmlns="http://www.w3.org/2000/svg">
<path d="M0 43.3L20 47C40 38.9 80 47.3 120 43.3C160 39.3 200 47.7 240 49.7C280 51.7 320 47.3 360 47C400 46.7 440 71.5 480 71C520 70.5 560 44.7 600 45C640 45.3 680 50.7 720 55.3C760 60 800 50.5 840 45C880 39.5 920 38 940 30.5L960 23V0H940C920 0 880 0 840 0C800 0 760 0 720 0C680 0 640 0 600 0C560 0 520 0 480 0C440 0 400 0 360 0C320 0 280 0 240 0C200 0 160 0 120 0C80 0 40 0 20 0H0V43.3Z" fill="#5C374C"/>
</svg>
