<svg width="1200" height="84" viewBox="0 0 1200 84" fill="none" xmlns="http://www.w3.org/2000/svg">
<path d="M0 12.2296L28.6667 16.7296C57.3333 21.2296 114.667 30.2296 171.733 35.2296C228.933 40.2296 285.733 41.2296 342.933 32.7296C400 24.2296 457.333 6.2296 514.4 1.4296C571.6 -3.4704 628.4 4.9296 685.6 15.9296C742.667 26.9296 800 40.5296 857.067 41.5296C914.267 42.5296 971.067 30.9296 1028.27 25.9296C1085.33 20.9296 1142.67 22.5296 1171.33 23.4296L1200 24.2296V83.2296H1171.33C1142.67 83.2296 1085.33 83.2296 1028.27 83.2296C971.067 83.2296 914.267 83.2296 857.067 83.2296C800 83.2296 742.667 83.2296 685.6 83.2296C628.4 83.2296 571.6 83.2296 514.4 83.2296C457.333 83.2296 400 83.2296 342.933 83.2296C285.733 83.2296 228.933 83.2296 171.733 83.2296C114.667 83.2296 57.3333 83.2296 28.6667 83.2296H0V12.2296Z" fill="#CE6A85"/>
</svg>
