<svg id="visual" viewBox="0 0 960 540" width="960" height="540" xmlns="http://www.w3.org/2000/svg" xmlns:xlink="http://www.w3.org/1999/xlink" version="1.1"><rect x="0" y="0" width="960" height="540" fill="#5b364b"></rect><path d="M0 109L17.8 117.2C35.7 125.3 71.3 141.7 106.8 145.8C142.3 150 177.7 142 213.2 137.5C248.7 133 284.3 132 320 138.5C355.7 145 391.3 159 426.8 164.2C462.3 169.3 497.7 165.7 533.2 154.8C568.7 144 604.3 126 640 117.3C675.7 108.7 711.3 109.3 746.8 117.5C782.3 125.7 817.7 141.3 853.2 141.7C888.7 142 924.3 127 942.2 119.5L960 112L960 0L942.2 0C924.3 0 888.7 0 853.2 0C817.7 0 782.3 0 746.8 0C711.3 0 675.7 0 640 0C604.3 0 568.7 0 533.2 0C497.7 0 462.3 0 426.8 0C391.3 0 355.7 0 320 0C284.3 0 248.7 0 213.2 0C177.7 0 142.3 0 106.8 0C71.3 0 35.7 0 17.8 0L0 0Z" fill="#ce6a85" stroke-linecap="round" stroke-linejoin="miter"></path></svg>