<svg id="visual" viewBox="0 0 900 600" width="900" height="600" xmlns="http://www.w3.org/2000/svg" xmlns:xlink="http://www.w3.org/1999/xlink" version="1.1"><rect x="0" y="0" width="900" height="600" fill="#ffffff"></rect><path d="M0 447L16.7 447.3C33.3 447.7 66.7 448.3 100 458.3C133.3 468.3 166.7 487.7 200 496.5C233.3 505.3 266.7 503.7 300 496.7C333.3 489.7 366.7 477.3 400 484.8C433.3 492.3 466.7 519.7 500 527C533.3 534.3 566.7 521.7 600 507C633.3 492.3 666.7 475.7 700 471.3C733.3 467 766.7 475 800 477.8C833.3 480.7 866.7 478.3 883.3 477.2L900 476L900 601L883.3 601C866.7 601 833.3 601 800 601C766.7 601 733.3 601 700 601C666.7 601 633.3 601 600 601C566.7 601 533.3 601 500 601C466.7 601 433.3 601 400 601C366.7 601 333.3 601 300 601C266.7 601 233.3 601 200 601C166.7 601 133.3 601 100 601C66.7 601 33.3 601 16.7 601L0 601Z" fill="#ce6a85" stroke-linecap="round" stroke-linejoin="miter"></path></svg>