<svg id="visual" viewBox="0 0 960 540" width="960" height="540" xmlns="http://www.w3.org/2000/svg" xmlns:xlink="http://www.w3.org/1999/xlink" version="1.1"><rect x="0" y="0" width="960" height="540" fill="#ffffff"></rect><path d="M0 340L17.8 325.5C35.7 311 71.3 282 106.8 274.7C142.3 267.3 177.7 281.7 213.2 289.8C248.7 298 284.3 300 320 288.3C355.7 276.7 391.3 251.3 426.8 242C462.3 232.7 497.7 239.3 533.2 258.7C568.7 278 604.3 310 640 325.3C675.7 340.7 711.3 339.3 746.8 324.8C782.3 310.3 817.7 282.7 853.2 282.2C888.7 281.7 924.3 308.3 942.2 321.7L960 335L960 541L942.2 541C924.3 541 888.7 541 853.2 541C817.7 541 782.3 541 746.8 541C711.3 541 675.7 541 640 541C604.3 541 568.7 541 533.2 541C497.7 541 462.3 541 426.8 541C391.3 541 355.7 541 320 541C284.3 541 248.7 541 213.2 541C177.7 541 142.3 541 106.8 541C71.3 541 35.7 541 17.8 541L0 541Z" fill="#ce6a85" stroke-linecap="round" stroke-linejoin="miter"></path></svg>