<svg id="visual" viewBox="0 0 960 540" width="960" height="540" xmlns="http://www.w3.org/2000/svg" xmlns:xlink="http://www.w3.org/1999/xlink" version="1.1"><rect x="0" y="0" width="960" height="540" fill="#fff"></rect><path d="M0 43L17.8 46.2C35.7 49.3 71.3 55.7 106.8 57.3C142.3 59 177.7 56 213.2 54.3C248.7 52.7 284.3 52.3 320 55C355.7 57.7 391.3 63.3 426.8 65.3C462.3 67.3 497.7 65.7 533.2 61.3C568.7 57 604.3 50 640 46.7C675.7 43.3 711.3 43.7 746.8 46.8C782.3 50 817.7 56 853.2 56C888.7 56 924.3 50 942.2 47L960 44L960 0L942.2 0C924.3 0 888.7 0 853.2 0C817.7 0 782.3 0 746.8 0C711.3 0 675.7 0 640 0C604.3 0 568.7 0 533.2 0C497.7 0 462.3 0 426.8 0C391.3 0 355.7 0 320 0C284.3 0 248.7 0 213.2 0C177.7 0 142.3 0 106.8 0C71.3 0 35.7 0 17.8 0L0 0Z" fill="#5b364b" stroke-linecap="round" stroke-linejoin="miter"></path></svg>