<svg id="visual" viewBox="0 0 960 540" width="960" height="540" xmlns="http://www.w3.org/2000/svg" xmlns:xlink="http://www.w3.org/1999/xlink" version="1.1"><rect x="0" y="0" width="960" height="540" fill="#ffffff"></rect><path d="M0 356L17.8 356.5C35.7 357 71.3 358 106.8 370.2C142.3 382.3 177.7 405.7 213.2 416.3C248.7 427 284.3 425 320 416.5C355.7 408 391.3 393 426.8 401.8C462.3 410.7 497.7 443.3 533.2 452.2C568.7 461 604.3 446 640 428.5C675.7 411 711.3 391 746.8 385.7C782.3 380.3 817.7 389.7 853.2 393C888.7 396.3 924.3 393.7 942.2 392.3L960 391L960 541L942.2 541C924.3 541 888.7 541 853.2 541C817.7 541 782.3 541 746.8 541C711.3 541 675.7 541 640 541C604.3 541 568.7 541 533.2 541C497.7 541 462.3 541 426.8 541C391.3 541 355.7 541 320 541C284.3 541 248.7 541 213.2 541C177.7 541 142.3 541 106.8 541C71.3 541 35.7 541 17.8 541L0 541Z" fill="#ce6a85" stroke-linecap="round" stroke-linejoin="miter"></path></svg>