<svg id="visual" viewBox="0 0 960 540" width="960" height="540" xmlns="http://www.w3.org/2000/svg" xmlns:xlink="http://www.w3.org/1999/xlink" version="1.1"><rect x="0" y="0" width="960" height="540" fill="#ffffff"></rect><path d="M0 263L22.8 277.2C45.7 291.3 91.3 319.7 137 344.5C182.7 369.3 228.3 390.7 274 378.3C319.7 366 365.3 320 411.2 311.2C457 302.3 503 330.7 548.8 338.7C594.7 346.7 640.3 334.3 686 321.7C731.7 309 777.3 296 823 294.2C868.7 292.3 914.3 301.7 937.2 306.3L960 311L960 541L937.2 541C914.3 541 868.7 541 823 541C777.3 541 731.7 541 686 541C640.3 541 594.7 541 548.8 541C503 541 457 541 411.2 541C365.3 541 319.7 541 274 541C228.3 541 182.7 541 137 541C91.3 541 45.7 541 22.8 541L0 541Z" fill="#ce6a85" stroke-linecap="round" stroke-linejoin="miter"></path></svg>