<svg id="visual" viewBox="0 0 900 600" width="900" height="600" xmlns="http://www.w3.org/2000/svg" xmlns:xlink="http://www.w3.org/1999/xlink" version="1.1"><rect x="0" y="0" width="900" height="600" fill="#ffffff"></rect><path d="M0 396L16.7 396.5C33.3 397 66.7 398 100 411.3C133.3 424.7 166.7 450.3 200 462.2C233.3 474 266.7 472 300 462.7C333.3 453.3 366.7 436.7 400 446.5C433.3 456.3 466.7 492.7 500 502.5C533.3 512.3 566.7 495.7 600 476.2C633.3 456.7 666.7 434.3 700 428.5C733.3 422.7 766.7 433.3 800 437.2C833.3 441 866.7 438 883.3 436.5L900 435L900 601L883.3 601C866.7 601 833.3 601 800 601C766.7 601 733.3 601 700 601C666.7 601 633.3 601 600 601C566.7 601 533.3 601 500 601C466.7 601 433.3 601 400 601C366.7 601 333.3 601 300 601C266.7 601 233.3 601 200 601C166.7 601 133.3 601 100 601C66.7 601 33.3 601 16.7 601L0 601Z" fill="#ce6a85" stroke-linecap="round" stroke-linejoin="miter"></path></svg>